<?xml version="1.0" encoding="UTF-8"?>
<svg width="64px" height="64px" viewBox="0 0 64 64" version="1.1" xmlns="http://www.w3.org/2000/svg" xmlns:xlink="http://www.w3.org/1999/xlink">
    <!-- Generator: Sketch 52.5 (67469) - http://www.bohemiancoding.com/sketch -->
    <title>Artboard</title>
    <desc>Created with Sketch.</desc>
    <g id="Page-1" stroke="none" stroke-width="1" fill="none" fill-rule="evenodd">
        <g id="Artboard" fill="#FFFFFF">
            <g id="music-light-min" transform="translate(23.000000, 15.000000)">
                <path d="M18.2113511,0.016107828 C17.8331216,0.0897014347 8.71537484,1.98678107 8.37738247,2.05219761 C8.03939009,2.11761415 7.72554003,2.34657204 7.72554003,2.70636301 L7.72554003,23.566062 C7.72554003,23.6968951 7.71749259,24.1548108 7.53240152,24.5227789 C7.28293096,25.0052258 6.84836934,25.3568397 6.23676408,25.5612664 C5.97119864,25.6512142 5.60906396,25.7329848 5.18254977,25.8311097 C3.24311732,26.2726713 0,27.0249615 0,30.0668306 C0,32.5281279 1.74629394,33.7056256 2.81660313,33.9182293 C3.21897501,34 3.70182126,34 3.92714951,34 C4.58703939,34 6.82422702,33.7301568 8.04743753,32.9206271 C8.93265565,32.3318782 9.98686997,31.1707347 9.98686997,29.0119889 L9.98686997,10.229265 C9.98686997,9.91853647 10.2041508,9.64869324 10.501906,9.59145377 L17.969928,8.03781096 C18.5654384,7.91515495 19,7.3754685 19,6.75401138 L19,0.637564951 C18.9919526,0.285951053 18.6941974,-0.082016981 18.2113511,0.016107828 Z" id="Path"></path>
            </g>
        </g>
    </g>
</svg>